<?xml version="1.0" encoding="UTF-8"?>
<!-- Square icon derived from assets/logo.svg (A4 page cropped to square for toolbar/add-ons). -->
<svg
  xmlns="http://www.w3.org/2000/svg"
  viewBox="0 38 210 210"
  width="512"
  height="512"
  role="img"
  aria-label="Ground News lookup"
>
  <defs>
    <style type="text/css">
      .st0 {
        fill: #1f1f1f;
      }
    </style>
  </defs>
  <g id="layer1">
    <g
      id="g1"
      transform="matrix(0.41341146,0,0,0.41341146,-0.79379595,42.5979)"
    >
      <g id="SVGRepo_iconCarrier">
        <g id="g4">
          <path
            class="st0"
            d="m 489.089,223.04 c 0,0 3.172,-4.438 5.938,-9.563 22.969,-42.734 22.625,-94.672 -1.016,-137.125 -3.797,-6.797 -9.734,-14.484 -9.734,-14.484 -0.844,-1.25 -2.203,-2.063 -3.688,-2.203 -1.5,-0.156 -3,0.391 -4.063,1.453 l -6.969,6.969 -68.531,68.531 c -1.969,1.969 -1.969,5.172 0,7.125 l 73.984,74 6.219,6.219 c 1.094,1.094 2.625,1.625 4.156,1.438 1.532,-0.172 2.891,-1.047 3.704,-2.36 z"
            id="path1"
          />
          <path
            class="st0"
            d="M 232.495,192.649 7.276,417.837 25.128584,439.43466 240.79248,227.86775 c 0.20603,-0.13594 31.60085,22.09867 29.34963,25.09801 -16.04928,21.38277 -71.29624,76.7438 -73.93747,80.84494 -2.41338,3.74737 23.25967,21.25051 36.63639,34.4153 L 319.683,278.322 c 12.30487,-15.62177 -74.62049,-97.70997 -87.188,-85.673 z M 32.20814,483.6521 c -30.2880289,-586.69206 -30.2880289,-586.69206 0,0 z"
            id="path2"
          />
          <path
            class="st0"
            d="m 349.745,207.618 c 5.734,5.703 15,5.703 20.703,0 l 20.188,-20.172 c 5.703,-5.719 5.703,-14.984 0,-20.703 -5.734,-5.719 -15,-5.719 -20.703,0 l -20.188,20.172 c -5.719,5.719 -5.719,14.984 0,20.703 z"
            id="path3"
          />
          <path
            class="st0"
            d="m 397.776,234.946 20.172,-20.188 c 5.719,-5.719 5.719,-14.984 0,-20.703 -5.719,-5.719 -14.984,-5.719 -20.703,0 l -20.172,20.172 c -5.719,5.719 -5.719,15 0,20.719 5.719,5.703 15,5.703 20.703,0 z"
            id="path4"
          />
          <path
            class="st0"
            d="m 51.791533,461.24781 c 2.040362,1.39376 42.702285,38.33014 42.86483,38.1676 l 109.450917,-105.74129 -57.25139,-53.33013 -18.24057,21.54622 11.20792,9.09109 z"
            id="path5"
          />
          <path
            class="st0"
            d="m 454.698,248.415 -6.438,-6.438 -16.063,-16.063 c -1.984,-1.984 -5.172,-1.984 -7.141,-0.016 l -32.906,32.906 c -2.969,2.969 -7.766,2.969 -10.719,0 L 326.04,203.413 c -2.953,-2.953 -2.953,-7.75 0,-10.703 l 32.906,-32.906 c 1.984,-1.969 1.984,-5.156 0,-7.141 l -9.641,-9.641 c -2.953,-2.969 -2.953,-7.75 0,-10.703 l 93.5,-93.5 5.328,-5.344 c 1.078,-1.078 1.609,-2.563 1.453,-4.063 -0.141,-1.5 -0.969,-2.859 -2.219,-3.703 0,0 -3.906,-3 -8.625,-5.75 -54.747,-32.06 -126.216,-24.606 -173.153,22.331 -40.672,40.656 -51.07239,94.17854 -32.47839,144.81854 19.94593,-14.6434 108.8613,70.32562 90.88163,88.75103 41.969,14.547 85.08176,11.43143 122.89376,-14.30357 4.078,-2.781 7.313,-5.547 7.313,-5.547 1.141,-0.891 1.875,-2.234 1.969,-3.672 0.093,-1.469 -0.439,-2.891 -1.47,-3.922 z"
            id="path6"
          />
        </g>
      </g>
    </g>
  </g>
</svg>
